name Walk8.mot
datacolumns 19
datarows 27
range 1.08600000 1.11200000
endheader

                time	   L_ground_force_vx	   L_ground_force_vy	   L_ground_force_vz	   L_ground_force_px	   L_ground_force_py	   L_ground_force_pz	   R_ground_force_vx	   R_ground_force_vy	   R_ground_force_vz	   R_ground_force_px	   R_ground_force_py	   R_ground_force_pz	   L_ground_torque_x	   L_ground_torque_y	   L_ground_torque_z	   R_ground_torque_x	   R_ground_torque_y	   R_ground_torque_z	
          1.08600000	          0.00000000	          0.00000000	          0.00000000	          0.00000000	          0.00000000	          0.00000000	          0.00000000	          0.00000000	          0.00000000	          0.00000000	          0.00000000	          0.00000000	          0.00000000	          0.00000000	          0.00000000	          0.00000000	          0.00000000	          0.00000000	
          1.08700000	          0.00000000	          0.00000000	          0.00000000	          0.00000000	          0.00000000	          0.00000000	          0.00000000	          0.00000000	          0.00000000	          0.00000000	          0.00000000	          0.00000000	          0.00000000	          0.00000000	          0.00000000	          0.00000000	          0.00000000	          0.00000000	
          1.08800000	          0.00000000	          0.00000000	          0.00000000	          0.00000000	          0.00000000	          0.00000000	          0.00000000	          0.00000000	          0.00000000	          0.00000000	          0.00000000	          0.00000000	          0.00000000	          0.00000000	          0.00000000	          0.00000000	          0.00000000	          0.00000000	
          1.08900000	          0.00000000	          0.00000000	          0.00000000	          0.00000000	          0.00000000	          0.00000000	          0.00000000	          0.00000000	          0.00000000	          0.00000000	          0.00000000	          0.00000000	          0.00000000	          0.00000000	          0.00000000	          0.00000000	          0.00000000	          0.00000000	
          1.09000000	          0.00000000	          0.00000000	          0.00000000	          0.00000000	          0.00000000	          0.00000000	         -9.73086294	         17.80871693	         -0.06688276	         -0.25503298	          0.00000000	          0.33214343	          0.00000000	          0.00000000	          0.00000000	          0.00000000	          0.14913613	          0.00000000	
          1.09100000	          0.00000000	          0.00000000	          0.00000000	          0.00000000	          0.00000000	          0.00000000	        -15.34267861	         33.80493425	          0.01120241	         -0.26070408	          0.00000000	          0.32916347	          0.00000000	          0.00000000	          0.00000000	          0.00000000	          0.19978826	          0.00000000	
          1.09200000	          0.00000000	          0.00000000	          0.00000000	          0.00000000	          0.00000000	          0.00000000	        -21.74775871	         56.60079194	          0.22425141	         -0.26401200	          0.00000000	          0.32692131	          0.00000000	          0.00000000	          0.00000000	          0.00000000	          0.24015935	          0.00000000	
          1.09300000	          0.00000000	          0.00000000	          0.00000000	          0.00000000	          0.00000000	          0.00000000	        -28.46107895	         87.15790073	          0.70169361	         -0.26592084	          0.00000000	          0.32503928	          0.00000000	          0.00000000	          0.00000000	          0.00000000	          0.26010979	          0.00000000	
          1.09400000	          0.00000000	          0.00000000	          0.00000000	          0.00000000	          0.00000000	          0.00000000	        -34.86225412	        125.71683753	          1.64322739	         -0.26697120	          0.00000000	          0.32342408	          0.00000000	          0.00000000	          0.00000000	          0.00000000	          0.25705180	          0.00000000	
          1.09500000	          0.00000000	          0.00000000	          0.00000000	          0.00000000	          0.00000000	          0.00000000	        -40.24089368	        171.11099831	          3.27621091	         -0.26751411	          0.00000000	          0.32208850	          0.00000000	          0.00000000	          0.00000000	          0.00000000	          0.23720769	          0.00000000	
          1.09600000	          0.00000000	          0.00000000	          0.00000000	          0.00000000	          0.00000000	          0.00000000	        -43.99788278	        220.57894810	          5.77854998	         -0.26774728	          0.00000000	          0.32105630	          0.00000000	          0.00000000	          0.00000000	          0.00000000	          0.21236978	          0.00000000	
          1.09700000	          0.00000000	          0.00000000	          0.00000000	          0.00000000	          0.00000000	          0.00000000	        -45.85806225	        270.29581988	          9.20151146	         -0.26777511	          0.00000000	          0.32033061	          0.00000000	          0.00000000	          0.00000000	          0.00000000	          0.19657991	          0.00000000	
          1.09800000	          0.00000000	          0.00000000	          0.00000000	          0.00000000	          0.00000000	          0.00000000	        -45.96043260	        316.35454264	         13.43606679	         -0.26765473	          0.00000000	          0.31987615	          0.00000000	          0.00000000	          0.00000000	          0.00000000	          0.20146668	          0.00000000	
          1.09900000	          0.00000000	          0.00000000	          0.00000000	          0.00000000	          0.00000000	          0.00000000	        -44.77941244	        355.64854360	         18.24270621	         -0.26741479	          0.00000000	          0.31959743	          0.00000000	          0.00000000	          0.00000000	          0.00000000	          0.22623205	          0.00000000	
          1.10000000	          0.00000000	          0.00000000	          0.00000000	          0.00000000	          0.00000000	          0.00000000	        -42.93619645	        386.31202226	         23.31467718	         -0.26706921	          0.00000000	          0.31936792	          0.00000000	          0.00000000	          0.00000000	          0.00000000	          0.25373902	          0.00000000	
          1.10100000	          0.00000000	          0.00000000	          0.00000000	          0.00000000	          0.00000000	          0.00000000	        -41.00907862	        407.74406406	         28.33910046	         -0.26662229	          0.00000000	          0.31911061	          0.00000000	          0.00000000	          0.00000000	          0.00000000	          0.26431621	          0.00000000	
          1.10200000	          0.00000000	          0.00000000	          0.00000000	          0.00000000	          0.00000000	          0.00000000	        -39.41447729	        420.41541742	         33.04771285	         -0.26607064	          0.00000000	          0.31884581	          0.00000000	          0.00000000	          0.00000000	          0.00000000	          0.25199648	          0.00000000	
          1.10300000	          0.00000000	          0.00000000	          0.00000000	          0.00000000	          0.00000000	          0.00000000	        -38.36962098	        425.61406830	         37.25277519	         -0.26542088	          0.00000000	          0.31865186	          0.00000000	          0.00000000	          0.00000000	          0.00000000	          0.22436114	          0.00000000	
          1.10400000	          0.00000000	          0.00000000	          0.00000000	          0.00000000	          0.00000000	          0.00000000	        -37.91706622	        425.17186094	         40.86026281	         -0.26471133	          0.00000000	          0.31857959	          0.00000000	          0.00000000	          0.00000000	          0.00000000	          0.19208809	          0.00000000	
          1.10500000	          0.00000000	          0.00000000	          0.00000000	          0.00000000	          0.00000000	          0.00000000	        -37.98598810	        421.16781530	         43.86044143	         -0.26400402	          0.00000000	          0.31860762	          0.00000000	          0.00000000	          0.00000000	          0.00000000	          0.16037248	          0.00000000	
          1.10600000	          0.00000000	          0.00000000	          0.00000000	          0.00000000	          0.00000000	          0.00000000	        -38.46463960	        415.64326208	         46.30606571	         -0.26334836	          0.00000000	          0.31865952	          0.00000000	          0.00000000	          0.00000000	          0.00000000	          0.12601380	          0.00000000	
          1.10700000	          0.00000000	          0.00000000	          0.00000000	          0.00000000	          0.00000000	          0.00000000	        -39.25562612	        410.38115380	         48.28722192	         -0.26275446	          0.00000000	          0.31865192	          0.00000000	          0.00000000	          0.00000000	          0.00000000	          0.08200121	          0.00000000	
          1.10800000	          0.00000000	          0.00000000	          0.00000000	          0.00000000	          0.00000000	          0.00000000	        -40.29754778	        406.76194061	         49.89842019	         -0.26220463	          0.00000000	          0.31855955	          0.00000000	          0.00000000	          0.00000000	          0.00000000	          0.02547976	          0.00000000	
          1.10900000	          0.00000000	          0.00000000	          0.00000000	          0.00000000	          0.00000000	          0.00000000	        -41.56193116	        405.69057223	         51.20378799	         -0.26168738	          0.00000000	          0.31844200	          0.00000000	          0.00000000	          0.00000000	          0.00000000	         -0.03909812	          0.00000000	
          1.11000000	          0.00000000	          0.00000000	          0.00000000	          0.00000000	          0.00000000	          0.00000000	        -43.04198966	        407.60422782	         52.22130179	         -0.26120381	          0.00000000	          0.31838869	          0.00000000	          0.00000000	          0.00000000	          0.00000000	         -0.10288164	          0.00000000	
          1.11100000	          0.00000000	          0.00000000	          0.00000000	          0.00000000	          0.00000000	          0.00000000	        -44.74149245	        412.54602580	         52.93048993	         -0.26074340	          0.00000000	          0.31844002	          0.00000000	          0.00000000	          0.00000000	          0.00000000	         -0.15866764	          0.00000000	
          1.11200000	          0.00000000	          0.00000000	          0.00000000	          0.00000000	          0.00000000	          0.00000000	        -46.66954736	        420.25684245	         53.29572062	         -0.26028071	          0.00000000	          0.31856362	          0.00000000	          0.00000000	          0.00000000	          0.00000000	         -0.20613101	          0.00000000	
